# xmcd CD database file generated by OrangeCD 6.2
#
# Track frame offsets:
#	150
#	14470
#	27927
#	41780
#	55592
#	69167
#	83517
#	97930
#	111632
#	126027
#	140125
#	153842
#	168825
#	183690
#	198217
#	211882
#	226257
#	240042
#
# Disc length: 3375 seconds
#
# Revision: 2
# Processed by: cddbd v1.5.2PL0 Copyright (c) Steve Scherf et al.
# Submitted via: OrangeCD 6.2
#
DISCID=e10d2d12
DTITLE=Furry Lewis and Frank Stokes - Beale Street Blues
DYEAR=1995
DGENRE=Blues
TTITLE0=Furry Lewis - I Will Turn Your Money Green
TTITLE1=Furry Lewis - Judge Harsh Blues
TTITLE2=Furry Lewis - Mistreatin' Mamma
TTITLE3=Furry Lewis - Kassie Jones <Part 1>
TTITLE4=Furry Lewis - Kassie Jones <Part 2>
TTITLE5=Furry Lewis - Cannon-Ball Blues
TTITLE6=Furry Lewis - Furry's Blues
TTITLE7=Furry Lewis - Dry Land Blues
TTITLE8=Frank Stokes - Downtown Blues
TTITLE9=Frank Stokes - Nehi Mamma Blues
TTITLE10=Frank Stokes - I Got Mine
TTITLE11=Frank Stokes - Stomp That Thing
TTITLE12=Frank Stokes - 'T Ain't Nobody's Business If I Do <Part 2>
TTITLE13=Frank Stokes - How Long
TTITLE14=Frank Stokes - Bunker Hill Blues
TTITLE15=Frank Stokes - Right Now Blues
TTITLE16=Frank Stokes - Frank Stokes' Dream
TTITLE17=Frank Stokes - Memphis Rounders Blues
EXTD=
EXTT0=
EXTT1=
EXTT2=
EXTT3=
EXTT4=
EXTT5=
EXTT6=
EXTT7=
EXTT8=
EXTT9=
EXTT10=
EXTT11=
EXTT12=
EXTT13=
EXTT14=
EXTT15=
EXTT16=
EXTT17=
PLAYORDER=
